<?xml version="1.0" encoding="UTF-8" standalone="no"?>
<!DOCTYPE svg PUBLIC "-//W3C//DTD SVG 1.1//EN"
 "http://www.w3.org/Graphics/SVG/1.1/DTD/svg11.dtd">
<!-- Generated by graphviz version 10.0.1 (20240210.2158)
 -->
<!-- Title: dependency&#45;cruiser output Pages: 1 -->
<svg width="985pt" height="866pt"
 viewBox="0.00 0.00 984.75 866.00" xmlns="http://www.w3.org/2000/svg" xmlns:xlink="http://www.w3.org/1999/xlink">
<g id="graph0" class="graph" transform="scale(1 1) rotate(0) translate(4 862)">
<title>dependency&#45;cruiser output</title>
<polygon fill="white" stroke="none" points="-4,4 -4,-862 980.75,-862 980.75,4 -4,4"/>
<g id="clust1" class="cluster">
<title>cluster_src</title>
<path fill="#ffffff" stroke="black" stroke-width="2" d="M12,-8C12,-8 956.75,-8 956.75,-8 962.75,-8 968.75,-14 968.75,-20 968.75,-20 968.75,-838 968.75,-838 968.75,-844 962.75,-850 956.75,-850 956.75,-850 12,-850 12,-850 6,-850 0,-844 0,-838 0,-838 0,-20 0,-20 0,-14 6,-8 12,-8"/>
<text text-anchor="middle" x="484.38" y="-837.45" font-family="Helvetica,sans-Serif" font-weight="bold" font-size="9.00">src</text>
</g>
<g id="clust2" class="cluster">
<title>cluster_src/Data</title>
<path fill="#ffffff" stroke="black" stroke-width="2" d="M187.62,-346C187.62,-346 862.75,-346 862.75,-346 868.75,-346 874.75,-352 874.75,-358 874.75,-358 874.75,-434 874.75,-434 874.75,-440 868.75,-446 862.75,-446 862.75,-446 187.62,-446 187.62,-446 181.63,-446 175.62,-440 175.62,-434 175.62,-434 175.62,-358 175.62,-358 175.62,-352 181.62,-346 187.62,-346"/>
<text text-anchor="middle" x="525.19" y="-433.45" font-family="Helvetica,sans-Serif" font-weight="bold" font-size="9.00">Data</text>
</g>
<g id="clust3" class="cluster">
<title>cluster_src/Data/DataSource</title>
<path fill="#ffffff" stroke="black" stroke-width="2" d="M557.5,-354C557.5,-354 854.75,-354 854.75,-354 860.75,-354 866.75,-360 866.75,-366 866.75,-366 866.75,-408 866.75,-408 866.75,-414 860.75,-420 854.75,-420 854.75,-420 557.5,-420 557.5,-420 551.5,-420 545.5,-414 545.5,-408 545.5,-408 545.5,-366 545.5,-366 545.5,-360 551.5,-354 557.5,-354"/>
<text text-anchor="middle" x="706.12" y="-407.45" font-family="Helvetica,sans-Serif" font-weight="bold" font-size="9.00">DataSource</text>
</g>
<g id="clust4" class="cluster">
<title>cluster_src/Data/Repository</title>
<path fill="#ffffff" stroke="black" stroke-width="2" d="M291.25,-366C291.25,-366 487.5,-366 487.5,-366 493.5,-366 499.5,-372 499.5,-378 499.5,-378 499.5,-406 499.5,-406 499.5,-412 493.5,-418 487.5,-418 487.5,-418 291.25,-418 291.25,-418 285.25,-418 279.25,-412 279.25,-406 279.25,-406 279.25,-378 279.25,-378 279.25,-372 285.25,-366 291.25,-366"/>
<text text-anchor="middle" x="389.38" y="-405.45" font-family="Helvetica,sans-Serif" font-weight="bold" font-size="9.00">Repository</text>
</g>
<g id="clust5" class="cluster">
<title>cluster_src/Domain</title>
<path fill="#ffffff" stroke="black" stroke-width="2" d="M549.5,-454C549.5,-454 948.75,-454 948.75,-454 954.75,-454 960.75,-460 960.75,-466 960.75,-466 960.75,-632 960.75,-632 960.75,-638 954.75,-644 948.75,-644 948.75,-644 549.5,-644 549.5,-644 543.5,-644 537.5,-638 537.5,-632 537.5,-632 537.5,-466 537.5,-466 537.5,-460 543.5,-454 549.5,-454"/>
<text text-anchor="middle" x="749.12" y="-631.45" font-family="Helvetica,sans-Serif" font-weight="bold" font-size="9.00">Domain</text>
</g>
<g id="clust6" class="cluster">
<title>cluster_src/Domain/Model</title>
<path fill="#ffffff" stroke="black" stroke-width="2" d="M894.75,-491C894.75,-491 940.75,-491 940.75,-491 946.75,-491 952.75,-497 952.75,-503 952.75,-503 952.75,-531 952.75,-531 952.75,-537 946.75,-543 940.75,-543 940.75,-543 894.75,-543 894.75,-543 888.75,-543 882.75,-537 882.75,-531 882.75,-531 882.75,-503 882.75,-503 882.75,-497 888.75,-491 894.75,-491"/>
<text text-anchor="middle" x="917.75" y="-530.45" font-family="Helvetica,sans-Serif" font-weight="bold" font-size="9.00">Model</text>
</g>
<g id="clust7" class="cluster">
<title>cluster_src/Domain/Repository</title>
<path fill="#ffffff" stroke="black" stroke-width="2" d="M798.88,-566C798.88,-566 844.88,-566 844.88,-566 850.88,-566 856.88,-572 856.88,-578 856.88,-578 856.88,-606 856.88,-606 856.88,-612 850.88,-618 844.88,-618 844.88,-618 798.88,-618 798.88,-618 792.88,-618 786.88,-612 786.88,-606 786.88,-606 786.88,-578 786.88,-578 786.88,-572 792.88,-566 798.88,-566"/>
<text text-anchor="middle" x="821.88" y="-605.45" font-family="Helvetica,sans-Serif" font-weight="bold" font-size="9.00">Repository</text>
</g>
<g id="clust8" class="cluster">
<title>cluster_src/Domain/UseCase</title>
<path fill="#ffffff" stroke="black" stroke-width="2" d="M557.5,-462C557.5,-462 844.88,-462 844.88,-462 850.88,-462 856.88,-468 856.88,-474 856.88,-474 856.88,-546 856.88,-546 856.88,-552 850.88,-558 844.88,-558 844.88,-558 557.5,-558 557.5,-558 551.5,-558 545.5,-552 545.5,-546 545.5,-546 545.5,-474 545.5,-474 545.5,-468 551.5,-462 557.5,-462"/>
<text text-anchor="middle" x="701.19" y="-545.45" font-family="Helvetica,sans-Serif" font-weight="bold" font-size="9.00">UseCase</text>
</g>
<g id="clust9" class="cluster">
<title>cluster_src/Presentation</title>
<path fill="#ffffff" stroke="black" stroke-width="2" d="M187.62,-652C187.62,-652 616,-652 616,-652 622,-652 628,-658 628,-664 628,-664 628,-812 628,-812 628,-818 622,-824 616,-824 616,-824 187.62,-824 187.62,-824 181.63,-824 175.62,-818 175.62,-812 175.62,-812 175.62,-664 175.62,-664 175.62,-658 181.62,-652 187.62,-652"/>
<text text-anchor="middle" x="401.81" y="-811.45" font-family="Helvetica,sans-Serif" font-weight="bold" font-size="9.00">Presentation</text>
</g>
<g id="clust10" class="cluster">
<title>cluster_src/Presentation/hook</title>
<path fill="#ffffff" stroke="black" stroke-width="2" d="M379,-660C379,-660 517.5,-660 517.5,-660 523.5,-660 529.5,-666 529.5,-672 529.5,-672 529.5,-700 529.5,-700 529.5,-706 523.5,-712 517.5,-712 517.5,-712 379,-712 379,-712 373,-712 367,-706 367,-700 367,-700 367,-672 367,-672 367,-666 373,-660 379,-660"/>
<text text-anchor="middle" x="448.25" y="-699.45" font-family="Helvetica,sans-Serif" font-weight="bold" font-size="9.00">hook</text>
</g>
<g id="clust11" class="cluster">
<title>cluster_src/app</title>
<path fill="#ffffff" stroke="black" stroke-width="2" d="M20,-16C20,-16 249.5,-16 249.5,-16 255.5,-16 261.5,-22 261.5,-28 261.5,-28 261.5,-326 261.5,-326 261.5,-332 255.5,-338 249.5,-338 249.5,-338 20,-338 20,-338 14,-338 8,-332 8,-326 8,-326 8,-28 8,-28 8,-22 14,-16 20,-16"/>
<text text-anchor="middle" x="134.75" y="-325.45" font-family="Helvetica,sans-Serif" font-weight="bold" font-size="9.00">app</text>
</g>
<g id="clust12" class="cluster">
<title>cluster_src/app/api</title>
<path fill="#ffffff" stroke="black" stroke-width="2" d="M28,-24C28,-24 119,-24 119,-24 125,-24 131,-30 131,-36 131,-36 131,-98 131,-98 131,-104 125,-110 119,-110 119,-110 28,-110 28,-110 22,-110 16,-104 16,-98 16,-98 16,-36 16,-36 16,-30 22,-24 28,-24"/>
<text text-anchor="middle" x="73.5" y="-97.45" font-family="Helvetica,sans-Serif" font-weight="bold" font-size="9.00">api</text>
</g>
<g id="clust13" class="cluster">
<title>cluster_src/app/api/sentry&#45;example&#45;api</title>
<path fill="#ffffff" stroke="black" stroke-width="2" d="M36,-32C36,-32 111,-32 111,-32 117,-32 123,-38 123,-44 123,-44 123,-72 123,-72 123,-78 117,-84 111,-84 111,-84 36,-84 36,-84 30,-84 24,-78 24,-72 24,-72 24,-44 24,-44 24,-38 30,-32 36,-32"/>
<text text-anchor="middle" x="73.5" y="-71.45" font-family="Helvetica,sans-Serif" font-weight="bold" font-size="9.00">sentry&#45;example&#45;api</text>
</g>
<g id="clust14" class="cluster">
<title>cluster_src/app/sentry&#45;example&#45;page</title>
<path fill="#ffffff" stroke="black" stroke-width="2" d="M32,-118C32,-118 115,-118 115,-118 121,-118 127,-124 127,-130 127,-130 127,-158 127,-158 127,-164 121,-170 115,-170 115,-170 32,-170 32,-170 26,-170 20,-164 20,-158 20,-158 20,-130 20,-130 20,-124 26,-118 32,-118"/>
<text text-anchor="middle" x="73.5" y="-157.45" font-family="Helvetica,sans-Serif" font-weight="bold" font-size="9.00">sentry&#45;example&#45;page</text>
</g>
<g id="clust15" class="cluster">
<title>cluster_src/app/tictactoe</title>
<path fill="#ffffff" stroke="black" stroke-width="2" d="M50,-234C50,-234 233.62,-234 233.62,-234 239.62,-234 245.62,-240 245.62,-246 245.62,-246 245.62,-274 245.62,-274 245.62,-280 239.62,-286 233.62,-286 233.62,-286 50,-286 50,-286 44,-286 38,-280 38,-274 38,-274 38,-246 38,-246 38,-240 44,-234 50,-234"/>
<text text-anchor="middle" x="141.81" y="-273.45" font-family="Helvetica,sans-Serif" font-weight="bold" font-size="9.00">tictactoe</text>
</g>
<!-- src/Data/DataSource/DataSource.ts -->
<g id="node1" class="node">
<title>src/Data/DataSource/DataSource.ts</title>
<g id="a_node1"><a xlink:href="src/Data/DataSource/DataSource.ts" xlink:title="DataSource.ts">
<path fill="#ddfeff" stroke="black" d="M852.83,-393.88C852.83,-393.88 790.92,-393.88 790.92,-393.88 787.96,-393.88 785,-390.92 785,-387.96 785,-387.96 785,-382.04 785,-382.04 785,-379.08 787.96,-376.12 790.92,-376.12 790.92,-376.12 852.83,-376.12 852.83,-376.12 855.79,-376.12 858.75,-379.08 858.75,-382.04 858.75,-382.04 858.75,-387.96 858.75,-387.96 858.75,-390.92 855.79,-393.88 852.83,-393.88"/>
<text text-anchor="start" x="793" y="-381.32" font-family="Helvetica,sans-Serif" font-size="9.00">DataSource.ts</text>
</a>
</g>
</g>
<!-- src/Domain/Model/index.ts -->
<g id="node2" class="node">
<title>src/Domain/Model/index.ts</title>
<g id="a_node2"><a xlink:href="src/Domain/Model/index.ts" xlink:title="index.ts">
<path fill="#ddfeff" stroke="black" d="M938.83,-516.88C938.83,-516.88 896.67,-516.88 896.67,-516.88 893.71,-516.88 890.75,-513.92 890.75,-510.96 890.75,-510.96 890.75,-505.04 890.75,-505.04 890.75,-502.08 893.71,-499.12 896.67,-499.12 896.67,-499.12 938.83,-499.12 938.83,-499.12 941.79,-499.12 944.75,-502.08 944.75,-505.04 944.75,-505.04 944.75,-510.96 944.75,-510.96 944.75,-513.92 941.79,-516.88 938.83,-516.88"/>
<text text-anchor="start" x="902" y="-504.32" font-family="Helvetica,sans-Serif" font-size="9.00">index.ts</text>
</a>
</g>
</g>
<!-- src/Data/DataSource/DataSource.ts&#45;&gt;src/Domain/Model/index.ts -->
<g id="edge1" class="edge">
<title>src/Data/DataSource/DataSource.ts&#45;&gt;src/Domain/Model/index.ts</title>
<path fill="none" stroke="#000000" stroke-width="2" stroke-opacity="0.200000" d="M829.93,-394.24C845.77,-414.99 884.3,-465.48 904.28,-491.66"/>
<polygon fill="#000000" fill-opacity="0.200000" stroke="#000000" stroke-width="2" stroke-opacity="0.200000" points="902.47,-492.75 907.78,-496.24 905.8,-490.2 902.47,-492.75"/>
</g>
<!-- src/Data/DataSource/OnMemoryDataSourceImpl.ts -->
<g id="node3" class="node">
<title>src/Data/DataSource/OnMemoryDataSourceImpl.ts</title>
<g id="a_node3"><a xlink:href="src/Data/DataSource/OnMemoryDataSourceImpl.ts" xlink:title="OnMemoryDataSourceImpl.ts">
<path fill="#ddfeff" stroke="black" d="M766.08,-379.88C766.08,-379.88 641.92,-379.88 641.92,-379.88 638.96,-379.88 636,-376.92 636,-373.96 636,-373.96 636,-368.04 636,-368.04 636,-365.08 638.96,-362.12 641.92,-362.12 641.92,-362.12 766.08,-362.12 766.08,-362.12 769.04,-362.12 772,-365.08 772,-368.04 772,-368.04 772,-373.96 772,-373.96 772,-376.92 769.04,-379.88 766.08,-379.88"/>
<text text-anchor="start" x="644" y="-367.32" font-family="Helvetica,sans-Serif" font-size="9.00">OnMemoryDataSourceImpl.ts</text>
</a>
</g>
</g>
<!-- src/Data/DataSource/OnMemoryDataSourceImpl.ts&#45;&gt;src/Data/DataSource/DataSource.ts -->
<g id="edge3" class="edge">
<title>src/Data/DataSource/OnMemoryDataSourceImpl.ts&#45;&gt;src/Data/DataSource/DataSource.ts</title>
<path fill="none" stroke="#000000" stroke-opacity="0.200000" d="M772.4,-379.14C774.1,-379.35 775.79,-379.55 777.46,-379.75"/>
<polygon fill="none" stroke="#000000" stroke-opacity="0.200000" points="776.95,-381.81 783.16,-380.44 777.45,-377.64 776.95,-381.81"/>
</g>
<!-- src/Data/DataSource/OnMemoryDataSourceImpl.ts&#45;&gt;src/Domain/Model/index.ts -->
<g id="edge2" class="edge">
<title>src/Data/DataSource/OnMemoryDataSourceImpl.ts&#45;&gt;src/Domain/Model/index.ts</title>
<path fill="none" stroke="#000000" stroke-opacity="0.200000" d="M732.47,-361.63C768.84,-351.11 833.19,-339.21 874.75,-370 913.35,-398.6 917.69,-461.84 917.43,-491.74"/>
<polygon fill="none" stroke="#000000" stroke-opacity="0.200000" points="915.34,-491.35 917.31,-497.39 919.54,-491.44 915.34,-491.35"/>
</g>
<!-- src/Data/DataSource/index.ts -->
<g id="node4" class="node">
<title>src/Data/DataSource/index.ts</title>
<g id="a_node4"><a xlink:href="src/Data/DataSource/index.ts" xlink:title="index.ts">
<path fill="#ddfeff" stroke="black" d="M601.58,-385.88C601.58,-385.88 559.42,-385.88 559.42,-385.88 556.46,-385.88 553.5,-382.92 553.5,-379.96 553.5,-379.96 553.5,-374.04 553.5,-374.04 553.5,-371.08 556.46,-368.12 559.42,-368.12 559.42,-368.12 601.58,-368.12 601.58,-368.12 604.54,-368.12 607.5,-371.08 607.5,-374.04 607.5,-374.04 607.5,-379.96 607.5,-379.96 607.5,-382.92 604.54,-385.88 601.58,-385.88"/>
<text text-anchor="start" x="564.75" y="-373.32" font-family="Helvetica,sans-Serif" font-size="9.00">index.ts</text>
</a>
</g>
</g>
<!-- src/Data/DataSource/index.ts&#45;&gt;src/Data/DataSource/DataSource.ts -->
<g id="edge4" class="edge">
<title>src/Data/DataSource/index.ts&#45;&gt;src/Data/DataSource/DataSource.ts</title>
<path fill="none" stroke="#000000" stroke-opacity="0.200000" d="M607.73,-382.22C616.66,-383.76 626.73,-385.24 636,-386 684.28,-389.96 739.9,-388.9 777.42,-387.37"/>
<polygon fill="none" stroke="#000000" stroke-opacity="0.200000" points="777.25,-389.48 783.16,-387.12 777.07,-385.28 777.25,-389.48"/>
</g>
<!-- src/Data/DataSource/index.ts&#45;&gt;src/Data/DataSource/OnMemoryDataSourceImpl.ts -->
<g id="edge5" class="edge">
<title>src/Data/DataSource/index.ts&#45;&gt;src/Data/DataSource/OnMemoryDataSourceImpl.ts</title>
<path fill="none" stroke="#000000" stroke-width="2" stroke-opacity="0.200000" d="M607.86,-375.7C614.28,-375.38 621.45,-375.03 628.91,-374.66"/>
<polygon fill="#000000" fill-opacity="0.200000" stroke="#000000" stroke-width="2" stroke-opacity="0.200000" points="634.92,-376.46 628.83,-374.66 634.72,-372.27 634.92,-376.46"/>
</g>
<!-- src/Data/Repository/RepositoryImpl.ts -->
<g id="node5" class="node">
<title>src/Data/Repository/RepositoryImpl.ts</title>
<g id="a_node5"><a xlink:href="src/Data/Repository/RepositoryImpl.ts" xlink:title="RepositoryImpl.ts">
<path fill="#ddfeff" stroke="black" d="M485.58,-391.88C485.58,-391.88 410.92,-391.88 410.92,-391.88 407.96,-391.88 405,-388.92 405,-385.96 405,-385.96 405,-380.04 405,-380.04 405,-377.08 407.96,-374.12 410.92,-374.12 410.92,-374.12 485.58,-374.12 485.58,-374.12 488.54,-374.12 491.5,-377.08 491.5,-380.04 491.5,-380.04 491.5,-385.96 491.5,-385.96 491.5,-388.92 488.54,-391.88 485.58,-391.88"/>
<text text-anchor="start" x="413" y="-379.32" font-family="Helvetica,sans-Serif" font-size="9.00">RepositoryImpl.ts</text>
</a>
</g>
</g>
<!-- src/Data/Repository/RepositoryImpl.ts&#45;&gt;src/Domain/Model/index.ts -->
<g id="edge6" class="edge">
<title>src/Data/Repository/RepositoryImpl.ts&#45;&gt;src/Domain/Model/index.ts</title>
<path fill="none" stroke="#000000" stroke-opacity="0.200000" d="M467.87,-373.76C532.17,-343.33 747.82,-253.56 874.75,-351 897.21,-368.24 910.27,-454.97 914.86,-491.61"/>
<polygon fill="none" stroke="#000000" stroke-opacity="0.200000" points="912.72,-491.42 915.53,-497.13 916.89,-490.92 912.72,-491.42"/>
</g>
<!-- src/Data/Repository/RepositoryImpl.ts&#45;&gt;src/Data/DataSource/index.ts -->
<g id="edge8" class="edge">
<title>src/Data/Repository/RepositoryImpl.ts&#45;&gt;src/Data/DataSource/index.ts</title>
<path fill="none" stroke="#000000" stroke-opacity="0.200000" d="M491.9,-381.04C509.4,-380.23 529.37,-379.31 545.81,-378.55"/>
<polygon fill="none" stroke="#000000" stroke-opacity="0.200000" points="545.69,-380.66 551.59,-378.29 545.5,-376.46 545.69,-380.66"/>
</g>
<!-- src/Domain/Repository/index.ts -->
<g id="node6" class="node">
<title>src/Domain/Repository/index.ts</title>
<g id="a_node6"><a xlink:href="src/Domain/Repository/index.ts" xlink:title="index.ts">
<path fill="#ddfeff" stroke="black" d="M842.96,-591.88C842.96,-591.88 800.79,-591.88 800.79,-591.88 797.83,-591.88 794.88,-588.92 794.88,-585.96 794.88,-585.96 794.88,-580.04 794.88,-580.04 794.88,-577.08 797.83,-574.12 800.79,-574.12 800.79,-574.12 842.96,-574.12 842.96,-574.12 845.92,-574.12 848.88,-577.08 848.88,-580.04 848.88,-580.04 848.88,-585.96 848.88,-585.96 848.88,-588.92 845.92,-591.88 842.96,-591.88"/>
<text text-anchor="start" x="806.12" y="-579.33" font-family="Helvetica,sans-Serif" font-size="9.00">index.ts</text>
</a>
</g>
</g>
<!-- src/Data/Repository/RepositoryImpl.ts&#45;&gt;src/Domain/Repository/index.ts -->
<g id="edge7" class="edge">
<title>src/Data/Repository/RepositoryImpl.ts&#45;&gt;src/Domain/Repository/index.ts</title>
<path fill="none" stroke="#000000" stroke-opacity="0.200000" d="M465.96,-392.25C483.33,-401.45 511.54,-415.28 537.5,-423 588.04,-438.02 735.2,-421.25 772,-459 803.9,-491.73 760.2,-522.62 785,-561 787.13,-564.3 789.95,-567.18 793.07,-569.68"/>
<polygon fill="none" stroke="#000000" stroke-opacity="0.200000" points="791.57,-571.19 797.7,-572.9 793.97,-567.75 791.57,-571.19"/>
</g>
<!-- src/Domain/Repository/index.ts&#45;&gt;src/Domain/Model/index.ts -->
<g id="edge12" class="edge">
<title>src/Domain/Repository/index.ts&#45;&gt;src/Domain/Model/index.ts</title>
<path fill="none" stroke="#000000" stroke-opacity="0.200000" d="M849.31,-574.74C857.93,-571.3 867.2,-566.75 874.75,-561 888.34,-550.65 900.04,-534.95 907.62,-523.33"/>
<polygon fill="none" stroke="#000000" stroke-opacity="0.200000" points="909.36,-524.5 910.78,-518.3 905.81,-522.26 909.36,-524.5"/>
</g>
<!-- src/Data/Repository/index.ts -->
<g id="node7" class="node">
<title>src/Data/Repository/index.ts</title>
<g id="a_node7"><a xlink:href="src/Data/Repository/index.ts" xlink:title="index.ts">
<path fill="#ddfeff" stroke="black" d="M335.33,-391.88C335.33,-391.88 293.17,-391.88 293.17,-391.88 290.21,-391.88 287.25,-388.92 287.25,-385.96 287.25,-385.96 287.25,-380.04 287.25,-380.04 287.25,-377.08 290.21,-374.12 293.17,-374.12 293.17,-374.12 335.33,-374.12 335.33,-374.12 338.29,-374.12 341.25,-377.08 341.25,-380.04 341.25,-380.04 341.25,-385.96 341.25,-385.96 341.25,-388.92 338.29,-391.88 335.33,-391.88"/>
<text text-anchor="start" x="298.5" y="-379.32" font-family="Helvetica,sans-Serif" font-size="9.00">index.ts</text>
</a>
</g>
</g>
<!-- src/Data/Repository/index.ts&#45;&gt;src/Data/Repository/RepositoryImpl.ts -->
<g id="edge9" class="edge">
<title>src/Data/Repository/index.ts&#45;&gt;src/Data/Repository/RepositoryImpl.ts</title>
<path fill="none" stroke="#000000" stroke-width="2" stroke-opacity="0.200000" d="M341.64,-383C357.59,-383 378.43,-383 397.38,-383"/>
<polygon fill="#000000" fill-opacity="0.200000" stroke="#000000" stroke-width="2" stroke-opacity="0.200000" points="403.53,-385.1 397.53,-383 403.53,-380.9 403.53,-385.1"/>
</g>
<!-- src/Data/index.ts -->
<g id="node8" class="node">
<title>src/Data/index.ts</title>
<g id="a_node8"><a xlink:href="src/Data/index.ts" xlink:title="index.ts">
<path fill="#ddfeff" stroke="black" d="M231.71,-371.88C231.71,-371.88 189.54,-371.88 189.54,-371.88 186.58,-371.88 183.62,-368.92 183.62,-365.96 183.62,-365.96 183.62,-360.04 183.62,-360.04 183.62,-357.08 186.58,-354.12 189.54,-354.12 189.54,-354.12 231.71,-354.12 231.71,-354.12 234.67,-354.12 237.62,-357.08 237.62,-360.04 237.62,-360.04 237.62,-365.96 237.62,-365.96 237.62,-368.92 234.67,-371.88 231.71,-371.88"/>
<text text-anchor="start" x="194.88" y="-359.32" font-family="Helvetica,sans-Serif" font-size="9.00">index.ts</text>
</a>
</g>
</g>
<!-- src/Data/index.ts&#45;&gt;src/Data/DataSource/index.ts -->
<g id="edge10" class="edge">
<title>src/Data/index.ts&#45;&gt;src/Data/DataSource/index.ts</title>
<path fill="none" stroke="#000000" stroke-width="2" stroke-opacity="0.200000" d="M237.75,-360.61C292.28,-356.14 422.07,-348.24 529.5,-363 534.96,-363.75 540.67,-364.94 546.19,-366.32"/>
<polygon fill="#000000" fill-opacity="0.200000" stroke="#000000" stroke-width="2" stroke-opacity="0.200000" points="551.55,-369.92 546.29,-366.35 552.63,-365.86 551.55,-369.92"/>
</g>
<!-- src/Data/index.ts&#45;&gt;src/Data/Repository/index.ts -->
<g id="edge11" class="edge">
<title>src/Data/index.ts&#45;&gt;src/Data/Repository/index.ts</title>
<path fill="none" stroke="#000000" stroke-width="2" stroke-opacity="0.200000" d="M238.06,-368.2C250.88,-370.73 266.42,-373.78 280.03,-376.46"/>
<polygon fill="#000000" fill-opacity="0.200000" stroke="#000000" stroke-width="2" stroke-opacity="0.200000" points="285.56,-379.69 280.08,-376.47 286.37,-375.57 285.56,-379.69"/>
</g>
<!-- src/Domain/UseCase/ClickOnBoardUseCase.ts -->
<g id="node9" class="node">
<title>src/Domain/UseCase/ClickOnBoardUseCase.ts</title>
<g id="a_node9"><a xlink:href="src/Domain/UseCase/ClickOnBoardUseCase.ts" xlink:title="ClickOnBoardUseCase.ts">
<path fill="#ddfeff" stroke="black" d="M758.21,-501.88C758.21,-501.88 649.79,-501.88 649.79,-501.88 646.83,-501.88 643.88,-498.92 643.88,-495.96 643.88,-495.96 643.88,-490.04 643.88,-490.04 643.88,-487.08 646.83,-484.12 649.79,-484.12 649.79,-484.12 758.21,-484.12 758.21,-484.12 761.17,-484.12 764.12,-487.08 764.12,-490.04 764.12,-490.04 764.12,-495.96 764.12,-495.96 764.12,-498.92 761.17,-501.88 758.21,-501.88"/>
<text text-anchor="start" x="651.88" y="-489.32" font-family="Helvetica,sans-Serif" font-size="9.00">ClickOnBoardUseCase.ts</text>
</a>
</g>
</g>
<!-- src/Domain/UseCase/ClickOnBoardUseCase.ts&#45;&gt;src/Domain/Model/index.ts -->
<g id="edge13" class="edge">
<title>src/Domain/UseCase/ClickOnBoardUseCase.ts&#45;&gt;src/Domain/Model/index.ts</title>
<path fill="none" stroke="#000000" stroke-opacity="0.200000" d="M764.39,-499.25C771.33,-499.89 778.32,-500.49 785,-501 818.4,-503.56 856.64,-505.48 883.29,-506.65"/>
<polygon fill="none" stroke="#000000" stroke-opacity="0.200000" points="882.88,-508.74 888.97,-506.9 883.06,-504.54 882.88,-508.74"/>
</g>
<!-- src/Domain/UseCase/ClickOnBoardUseCase.ts&#45;&gt;src/Domain/Repository/index.ts -->
<g id="edge14" class="edge">
<title>src/Domain/UseCase/ClickOnBoardUseCase.ts&#45;&gt;src/Domain/Repository/index.ts</title>
<path fill="none" stroke="#000000" stroke-opacity="0.200000" d="M764.4,-502.13C767.14,-503.8 769.7,-505.75 772,-508 789.32,-524.98 770.7,-541.41 785,-561 787.37,-564.25 790.38,-567.11 793.64,-569.61"/>
<polygon fill="none" stroke="#000000" stroke-opacity="0.200000" points="792.3,-571.24 798.45,-572.87 794.66,-567.77 792.3,-571.24"/>
</g>
<!-- src/Domain/UseCase/Util.ts -->
<g id="node10" class="node">
<title>src/Domain/UseCase/Util.ts</title>
<g id="a_node10"><a xlink:href="src/Domain/UseCase/Util.ts" xlink:title="Util.ts">
<path fill="#ddfeff" stroke="black" d="M842.96,-494.88C842.96,-494.88 800.79,-494.88 800.79,-494.88 797.83,-494.88 794.88,-491.92 794.88,-488.96 794.88,-488.96 794.88,-483.04 794.88,-483.04 794.88,-480.08 797.83,-477.12 800.79,-477.12 800.79,-477.12 842.96,-477.12 842.96,-477.12 845.92,-477.12 848.88,-480.08 848.88,-483.04 848.88,-483.04 848.88,-488.96 848.88,-488.96 848.88,-491.92 845.92,-494.88 842.96,-494.88"/>
<text text-anchor="start" x="810.62" y="-482.32" font-family="Helvetica,sans-Serif" font-size="9.00">Util.ts</text>
</a>
</g>
</g>
<!-- src/Domain/UseCase/ClickOnBoardUseCase.ts&#45;&gt;src/Domain/UseCase/Util.ts -->
<g id="edge15" class="edge">
<title>src/Domain/UseCase/ClickOnBoardUseCase.ts&#45;&gt;src/Domain/UseCase/Util.ts</title>
<path fill="none" stroke="#000000" stroke-width="2" stroke-opacity="0.200000" d="M764.3,-489.42C771.57,-488.98 778.81,-488.54 785.57,-488.13"/>
<polygon fill="#000000" fill-opacity="0.200000" stroke="#000000" stroke-width="2" stroke-opacity="0.200000" points="785.56,-490.24 791.42,-487.78 785.3,-486.05 785.56,-490.24"/>
</g>
<!-- src/Domain/UseCase/Util.ts&#45;&gt;src/Domain/Model/index.ts -->
<g id="edge17" class="edge">
<title>src/Domain/UseCase/Util.ts&#45;&gt;src/Domain/Model/index.ts</title>
<path fill="none" stroke="#000000" stroke-width="2" stroke-opacity="0.200000" d="M849.27,-492.19C859.36,-494.55 871.02,-497.28 881.78,-499.8"/>
<polygon fill="#000000" fill-opacity="0.200000" stroke="#000000" stroke-width="2" stroke-opacity="0.200000" points="881.28,-501.84 887.6,-501.17 882.24,-497.76 881.28,-501.84"/>
</g>
<!-- src/Domain/UseCase/JumpToStepUseCase.ts -->
<g id="node11" class="node">
<title>src/Domain/UseCase/JumpToStepUseCase.ts</title>
<g id="a_node11"><a xlink:href="src/Domain/UseCase/JumpToStepUseCase.ts" xlink:title="JumpToStepUseCase.ts">
<path fill="#ddfeff" stroke="black" d="M755.21,-531.88C755.21,-531.88 652.79,-531.88 652.79,-531.88 649.83,-531.88 646.88,-528.92 646.88,-525.96 646.88,-525.96 646.88,-520.04 646.88,-520.04 646.88,-517.08 649.83,-514.12 652.79,-514.12 652.79,-514.12 755.21,-514.12 755.21,-514.12 758.17,-514.12 761.12,-517.08 761.12,-520.04 761.12,-520.04 761.12,-525.96 761.12,-525.96 761.12,-528.92 758.17,-531.88 755.21,-531.88"/>
<text text-anchor="start" x="654.88" y="-519.33" font-family="Helvetica,sans-Serif" font-size="9.00">JumpToStepUseCase.ts</text>
</a>
</g>
</g>
<!-- src/Domain/UseCase/JumpToStepUseCase.ts&#45;&gt;src/Domain/Repository/index.ts -->
<g id="edge16" class="edge">
<title>src/Domain/UseCase/JumpToStepUseCase.ts&#45;&gt;src/Domain/Repository/index.ts</title>
<path fill="none" stroke="#000000" stroke-opacity="0.200000" d="M723.11,-532.38C742.83,-542.59 774.5,-558.99 796.43,-570.34"/>
<polygon fill="none" stroke="#000000" stroke-opacity="0.200000" points="795.26,-572.1 801.55,-572.99 797.19,-568.37 795.26,-572.1"/>
</g>
<!-- src/Domain/UseCase/index.ts -->
<g id="node12" class="node">
<title>src/Domain/UseCase/index.ts</title>
<g id="a_node12"><a xlink:href="src/Domain/UseCase/index.ts" xlink:title="index.ts">
<path fill="#ddfeff" stroke="black" d="M601.58,-531.88C601.58,-531.88 559.42,-531.88 559.42,-531.88 556.46,-531.88 553.5,-528.92 553.5,-525.96 553.5,-525.96 553.5,-520.04 553.5,-520.04 553.5,-517.08 556.46,-514.12 559.42,-514.12 559.42,-514.12 601.58,-514.12 601.58,-514.12 604.54,-514.12 607.5,-517.08 607.5,-520.04 607.5,-520.04 607.5,-525.96 607.5,-525.96 607.5,-528.92 604.54,-531.88 601.58,-531.88"/>
<text text-anchor="start" x="564.75" y="-519.33" font-family="Helvetica,sans-Serif" font-size="9.00">index.ts</text>
</a>
</g>
</g>
<!-- src/Domain/UseCase/index.ts&#45;&gt;src/Domain/UseCase/ClickOnBoardUseCase.ts -->
<g id="edge18" class="edge">
<title>src/Domain/UseCase/index.ts&#45;&gt;src/Domain/UseCase/ClickOnBoardUseCase.ts</title>
<path fill="none" stroke="#000000" stroke-width="2" stroke-opacity="0.200000" d="M607.77,-515.49C616.7,-513.01 626.76,-510.3 636,-508 641.57,-506.61 647.41,-505.21 653.23,-503.86"/>
<polygon fill="#000000" fill-opacity="0.200000" stroke="#000000" stroke-width="2" stroke-opacity="0.200000" points="659.53,-504.57 653.21,-503.87 658.59,-500.47 659.53,-504.57"/>
</g>
<!-- src/Domain/UseCase/index.ts&#45;&gt;src/Domain/UseCase/Util.ts -->
<g id="edge20" class="edge">
<title>src/Domain/UseCase/index.ts&#45;&gt;src/Domain/UseCase/Util.ts</title>
<path fill="none" stroke="#000000" stroke-width="2" stroke-opacity="0.200000" d="M588.84,-513.95C598.36,-503 616.14,-485.14 636,-478 686.52,-459.84 749.85,-468.8 787.75,-477.21"/>
<polygon fill="#000000" fill-opacity="0.200000" stroke="#000000" stroke-width="2" stroke-opacity="0.200000" points="793.08,-480.59 787.7,-477.19 794.02,-476.49 793.08,-480.59"/>
</g>
<!-- src/Domain/UseCase/index.ts&#45;&gt;src/Domain/UseCase/JumpToStepUseCase.ts -->
<g id="edge19" class="edge">
<title>src/Domain/UseCase/index.ts&#45;&gt;src/Domain/UseCase/JumpToStepUseCase.ts</title>
<path fill="none" stroke="#000000" stroke-width="2" stroke-opacity="0.200000" d="M607.86,-523C617.34,-523 628.49,-523 639.75,-523"/>
<polygon fill="#000000" fill-opacity="0.200000" stroke="#000000" stroke-width="2" stroke-opacity="0.200000" points="645.76,-525.1 639.76,-523 645.76,-520.9 645.76,-525.1"/>
</g>
<!-- src/Presentation/BoardView.tsx -->
<g id="node13" class="node">
<title>src/Presentation/BoardView.tsx</title>
<g id="a_node13"><a xlink:href="src/Presentation/BoardView.tsx" xlink:title="BoardView.tsx">
<path fill="#bbfeff" stroke="black" d="M479.21,-767.88C479.21,-767.88 417.29,-767.88 417.29,-767.88 414.33,-767.88 411.38,-764.92 411.38,-761.96 411.38,-761.96 411.38,-756.04 411.38,-756.04 411.38,-753.08 414.33,-750.12 417.29,-750.12 417.29,-750.12 479.21,-750.12 479.21,-750.12 482.17,-750.12 485.12,-753.08 485.12,-756.04 485.12,-756.04 485.12,-761.96 485.12,-761.96 485.12,-764.92 482.17,-767.88 479.21,-767.88"/>
<text text-anchor="start" x="419.38" y="-755.33" font-family="Helvetica,sans-Serif" font-size="9.00">BoardView.tsx</text>
</a>
</g>
</g>
<!-- src/Presentation/BoardView.tsx&#45;&gt;src/Domain/Model/index.ts -->
<g id="edge21" class="edge">
<title>src/Presentation/BoardView.tsx&#45;&gt;src/Domain/Model/index.ts</title>
<path fill="none" stroke="#000000" stroke-opacity="0.200000" d="M485.47,-763.66C568.2,-772.05 771.78,-779.59 874.75,-668 912.45,-627.14 917.15,-556.58 917.2,-524.6"/>
<polygon fill="none" stroke="#000000" stroke-opacity="0.200000" points="919.3,-524.84 917.15,-518.86 915.1,-524.88 919.3,-524.84"/>
</g>
<!-- src/Presentation/SquareView.tsx -->
<g id="node14" class="node">
<title>src/Presentation/SquareView.tsx</title>
<g id="a_node14"><a xlink:href="src/Presentation/SquareView.tsx" xlink:title="SquareView.tsx">
<path fill="#bbfeff" stroke="black" d="M614.08,-711.88C614.08,-711.88 546.92,-711.88 546.92,-711.88 543.96,-711.88 541,-708.92 541,-705.96 541,-705.96 541,-700.04 541,-700.04 541,-697.08 543.96,-694.12 546.92,-694.12 546.92,-694.12 614.08,-694.12 614.08,-694.12 617.04,-694.12 620,-697.08 620,-700.04 620,-700.04 620,-705.96 620,-705.96 620,-708.92 617.04,-711.88 614.08,-711.88"/>
<text text-anchor="start" x="549" y="-699.33" font-family="Helvetica,sans-Serif" font-size="9.00">SquareView.tsx</text>
</a>
</g>
</g>
<!-- src/Presentation/BoardView.tsx&#45;&gt;src/Presentation/SquareView.tsx -->
<g id="edge22" class="edge">
<title>src/Presentation/BoardView.tsx&#45;&gt;src/Presentation/SquareView.tsx</title>
<path fill="none" stroke="#000000" stroke-width="2" stroke-opacity="0.200000" d="M485.59,-756.12C499.78,-754 515.88,-750.34 529.5,-744 531.41,-743.11 548.22,-729.21 561.83,-717.84"/>
<polygon fill="#000000" fill-opacity="0.200000" stroke="#000000" stroke-width="2" stroke-opacity="0.200000" points="562.99,-719.61 566.24,-714.15 560.29,-716.39 562.99,-719.61"/>
</g>
<!-- src/Presentation/SquareView.tsx&#45;&gt;src/Domain/Model/index.ts -->
<g id="edge23" class="edge">
<title>src/Presentation/SquareView.tsx&#45;&gt;src/Domain/Model/index.ts</title>
<path fill="none" stroke="#000000" stroke-opacity="0.200000" d="M620.45,-706.27C682.38,-709.24 803.54,-705.59 874.75,-641 908.54,-610.35 915.34,-552.78 916.58,-524.51"/>
<polygon fill="none" stroke="#000000" stroke-opacity="0.200000" points="918.68,-524.62 916.76,-518.56 914.48,-524.5 918.68,-524.62"/>
</g>
<!-- src/Presentation/JumpToStepButtons.tsx -->
<g id="node15" class="node">
<title>src/Presentation/JumpToStepButtons.tsx</title>
<g id="a_node15"><a xlink:href="src/Presentation/JumpToStepButtons.tsx" xlink:title="JumpToStepButtons.tsx">
<path fill="#bbfeff" stroke="black" d="M497.96,-797.88C497.96,-797.88 398.54,-797.88 398.54,-797.88 395.58,-797.88 392.62,-794.92 392.62,-791.96 392.62,-791.96 392.62,-786.04 392.62,-786.04 392.62,-783.08 395.58,-780.12 398.54,-780.12 398.54,-780.12 497.96,-780.12 497.96,-780.12 500.92,-780.12 503.88,-783.08 503.88,-786.04 503.88,-786.04 503.88,-791.96 503.88,-791.96 503.88,-794.92 500.92,-797.88 497.96,-797.88"/>
<text text-anchor="start" x="400.62" y="-785.33" font-family="Helvetica,sans-Serif" font-size="9.00">JumpToStepButtons.tsx</text>
</a>
</g>
</g>
<!-- src/Presentation/StatusView.tsx -->
<g id="node16" class="node">
<title>src/Presentation/StatusView.tsx</title>
<g id="a_node16"><a xlink:href="src/Presentation/StatusView.tsx" xlink:title="StatusView.tsx">
<path fill="#bbfeff" stroke="black" d="M479.58,-737.88C479.58,-737.88 416.92,-737.88 416.92,-737.88 413.96,-737.88 411,-734.92 411,-731.96 411,-731.96 411,-726.04 411,-726.04 411,-723.08 413.96,-720.12 416.92,-720.12 416.92,-720.12 479.58,-720.12 479.58,-720.12 482.54,-720.12 485.5,-723.08 485.5,-726.04 485.5,-726.04 485.5,-731.96 485.5,-731.96 485.5,-734.92 482.54,-737.88 479.58,-737.88"/>
<text text-anchor="start" x="419" y="-725.33" font-family="Helvetica,sans-Serif" font-size="9.00">StatusView.tsx</text>
</a>
</g>
</g>
<!-- src/Presentation/StatusView.tsx&#45;&gt;src/Domain/Model/index.ts -->
<g id="edge24" class="edge">
<title>src/Presentation/StatusView.tsx&#45;&gt;src/Domain/Model/index.ts</title>
<path fill="none" stroke="#000000" stroke-opacity="0.200000" d="M485.63,-730.7C500.83,-729.53 517.67,-725.54 529.5,-715 538.85,-706.67 528.25,-696.43 537.5,-688 551.61,-675.13 860.21,-633.39 874.75,-621 903.79,-596.26 912.77,-549.47 915.53,-524.56"/>
<polygon fill="none" stroke="#000000" stroke-opacity="0.200000" points="917.6,-524.98 916.08,-518.81 913.42,-524.58 917.6,-524.98"/>
</g>
<!-- src/Presentation/TicTacToeView.tsx -->
<g id="node17" class="node">
<title>src/Presentation/TicTacToeView.tsx</title>
<g id="a_node17"><a xlink:href="src/Presentation/TicTacToeView.tsx" xlink:title="TicTacToeView.tsx">
<path fill="#bbfeff" stroke="black" d="M353.08,-685.88C353.08,-685.88 275.42,-685.88 275.42,-685.88 272.46,-685.88 269.5,-682.92 269.5,-679.96 269.5,-679.96 269.5,-674.04 269.5,-674.04 269.5,-671.08 272.46,-668.12 275.42,-668.12 275.42,-668.12 353.08,-668.12 353.08,-668.12 356.04,-668.12 359,-671.08 359,-674.04 359,-674.04 359,-679.96 359,-679.96 359,-682.92 356.04,-685.88 353.08,-685.88"/>
<text text-anchor="start" x="277.5" y="-673.33" font-family="Helvetica,sans-Serif" font-size="9.00">TicTacToeView.tsx</text>
</a>
</g>
</g>
<!-- src/Presentation/TicTacToeView.tsx&#45;&gt;src/Domain/Repository/index.ts -->
<g id="edge25" class="edge">
<title>src/Presentation/TicTacToeView.tsx&#45;&gt;src/Domain/Repository/index.ts</title>
<path fill="none" stroke="#000000" stroke-opacity="0.200000" d="M338,-667.64C346.96,-664.1 357.4,-660.17 367,-657 483.32,-618.6 514.16,-609.64 636,-597 688.83,-591.52 750.36,-587.29 787.43,-584.97"/>
<polygon fill="none" stroke="#000000" stroke-opacity="0.200000" points="787.13,-587.09 792.99,-584.63 786.88,-582.9 787.13,-587.09"/>
</g>
<!-- src/Presentation/TicTacToeView.tsx&#45;&gt;src/Domain/UseCase/index.ts -->
<g id="edge26" class="edge">
<title>src/Presentation/TicTacToeView.tsx&#45;&gt;src/Domain/UseCase/index.ts</title>
<path fill="none" stroke="#000000" stroke-width="2" stroke-opacity="0.200000" d="M318.11,-667.66C324.12,-649.55 339.83,-609.55 367,-588 419.6,-546.29 498.88,-531.25 544.26,-525.89"/>
<polygon fill="#000000" fill-opacity="0.200000" stroke="#000000" stroke-width="2" stroke-opacity="0.200000" points="544.39,-527.99 550.13,-525.25 543.93,-523.82 544.39,-527.99"/>
</g>
<!-- src/Presentation/TicTacToeView.tsx&#45;&gt;src/Presentation/BoardView.tsx -->
<g id="edge27" class="edge">
<title>src/Presentation/TicTacToeView.tsx&#45;&gt;src/Presentation/BoardView.tsx</title>
<path fill="none" stroke="#000000" stroke-width="2" stroke-opacity="0.200000" d="M319.51,-686.09C326.93,-700.83 343.68,-729.74 367,-744 377.51,-750.43 390.13,-754.22 402.22,-756.42"/>
<polygon fill="#000000" fill-opacity="0.200000" stroke="#000000" stroke-width="2" stroke-opacity="0.200000" points="401.65,-758.46 407.9,-757.3 402.29,-754.31 401.65,-758.46"/>
</g>
<!-- src/Presentation/TicTacToeView.tsx&#45;&gt;src/Presentation/JumpToStepButtons.tsx -->
<g id="edge29" class="edge">
<title>src/Presentation/TicTacToeView.tsx&#45;&gt;src/Presentation/JumpToStepButtons.tsx</title>
<path fill="none" stroke="#000000" stroke-width="2" stroke-opacity="0.200000" d="M317.32,-686.24C322.23,-705.85 336.52,-751.65 367,-774 372.11,-777.75 377.88,-780.64 383.92,-782.87"/>
<polygon fill="#000000" fill-opacity="0.200000" stroke="#000000" stroke-width="2" stroke-opacity="0.200000" points="383.06,-784.8 389.41,-784.6 384.32,-780.79 383.06,-784.8"/>
</g>
<!-- src/Presentation/TicTacToeView.tsx&#45;&gt;src/Presentation/StatusView.tsx -->
<g id="edge30" class="edge">
<title>src/Presentation/TicTacToeView.tsx&#45;&gt;src/Presentation/StatusView.tsx</title>
<path fill="none" stroke="#000000" stroke-width="2" stroke-opacity="0.200000" d="M324.7,-686.07C334.48,-694.91 350.59,-708.01 367,-715 377.89,-719.64 390.23,-722.74 401.91,-724.82"/>
<polygon fill="#000000" fill-opacity="0.200000" stroke="#000000" stroke-width="2" stroke-opacity="0.200000" points="401.44,-726.87 407.69,-725.74 402.1,-722.72 401.44,-726.87"/>
</g>
<!-- src/Presentation/hook/useTicTacToeModelController.ts -->
<g id="node18" class="node">
<title>src/Presentation/hook/useTicTacToeModelController.ts</title>
<g id="a_node18"><a xlink:href="src/Presentation/hook/useTicTacToeModelController.ts" xlink:title="useTicTacToeModelController.ts">
<path fill="#ddfeff" stroke="black" d="M515.58,-685.88C515.58,-685.88 380.92,-685.88 380.92,-685.88 377.96,-685.88 375,-682.92 375,-679.96 375,-679.96 375,-674.04 375,-674.04 375,-671.08 377.96,-668.12 380.92,-668.12 380.92,-668.12 515.58,-668.12 515.58,-668.12 518.54,-668.12 521.5,-671.08 521.5,-674.04 521.5,-674.04 521.5,-679.96 521.5,-679.96 521.5,-682.92 518.54,-685.88 515.58,-685.88"/>
<text text-anchor="start" x="383" y="-673.33" font-family="Helvetica,sans-Serif" font-size="9.00">useTicTacToeModelController.ts</text>
</a>
</g>
</g>
<!-- src/Presentation/TicTacToeView.tsx&#45;&gt;src/Presentation/hook/useTicTacToeModelController.ts -->
<g id="edge28" class="edge">
<title>src/Presentation/TicTacToeView.tsx&#45;&gt;src/Presentation/hook/useTicTacToeModelController.ts</title>
<path fill="none" stroke="#000000" stroke-width="2" stroke-opacity="0.200000" d="M359.2,-677C361.44,-677 363.7,-677 366,-677"/>
<polygon fill="#000000" fill-opacity="0.200000" stroke="#000000" stroke-width="2" stroke-opacity="0.200000" points="365.93,-679.1 371.93,-677 365.93,-674.9 365.93,-679.1"/>
</g>
<!-- src/Presentation/hook/useTicTacToeModelController.ts&#45;&gt;src/Domain/Repository/index.ts -->
<g id="edge31" class="edge">
<title>src/Presentation/hook/useTicTacToeModelController.ts&#45;&gt;src/Domain/Repository/index.ts</title>
<path fill="none" stroke="#000000" stroke-opacity="0.200000" d="M464.27,-667.72C481.36,-657.59 510.43,-641.66 537.5,-633 638,-600.86 668.77,-617.81 772,-596 777.08,-594.93 782.42,-593.66 787.63,-592.34"/>
<polygon fill="none" stroke="#000000" stroke-opacity="0.200000" points="787.87,-594.44 793.15,-590.9 786.81,-590.38 787.87,-594.44"/>
</g>
<!-- src/Presentation/hook/useTicTacToeModelController.ts&#45;&gt;src/Domain/UseCase/index.ts -->
<g id="edge32" class="edge">
<title>src/Presentation/hook/useTicTacToeModelController.ts&#45;&gt;src/Domain/UseCase/index.ts</title>
<path fill="none" stroke="#000000" stroke-width="2" stroke-opacity="0.200000" d="M457.01,-667.83C478.49,-642.42 538.97,-570.91 566.07,-538.87"/>
<polygon fill="#000000" fill-opacity="0.200000" stroke="#000000" stroke-width="2" stroke-opacity="0.200000" points="567.39,-540.57 569.66,-534.63 564.19,-537.86 567.39,-540.57"/>
</g>
<!-- src/Presentation/index.ts -->
<g id="node19" class="node">
<title>src/Presentation/index.ts</title>
<g id="a_node19"><a xlink:href="src/Presentation/index.ts" xlink:title="index.ts">
<path fill="#ddfeff" stroke="black" d="M231.71,-681.88C231.71,-681.88 189.54,-681.88 189.54,-681.88 186.58,-681.88 183.62,-678.92 183.62,-675.96 183.62,-675.96 183.62,-670.04 183.62,-670.04 183.62,-667.08 186.58,-664.12 189.54,-664.12 189.54,-664.12 231.71,-664.12 231.71,-664.12 234.67,-664.12 237.62,-667.08 237.62,-670.04 237.62,-670.04 237.62,-675.96 237.62,-675.96 237.62,-678.92 234.67,-681.88 231.71,-681.88"/>
<text text-anchor="start" x="194.88" y="-669.33" font-family="Helvetica,sans-Serif" font-size="9.00">index.ts</text>
</a>
</g>
</g>
<!-- src/Presentation/index.ts&#45;&gt;src/Presentation/TicTacToeView.tsx -->
<g id="edge33" class="edge">
<title>src/Presentation/index.ts&#45;&gt;src/Presentation/TicTacToeView.tsx</title>
<path fill="none" stroke="#000000" stroke-width="2" stroke-opacity="0.200000" d="M238.06,-674.04C245.5,-674.33 253.86,-674.66 262.23,-674.99"/>
<polygon fill="#000000" fill-opacity="0.200000" stroke="#000000" stroke-width="2" stroke-opacity="0.200000" points="268.15,-677.33 262.24,-674.99 268.32,-673.13 268.15,-677.33"/>
</g>
<!-- src/app/api/sentry&#45;example&#45;api/route.js -->
<g id="node20" class="node">
<title>src/app/api/sentry&#45;example&#45;api/route.js</title>
<g id="a_node20"><a xlink:href="src/app/api/sentry-example-api/route.js" xlink:title="no&#45;orphans">
<path fill="#ccffcc" stroke="orange" d="M94.08,-57.88C94.08,-57.88 51.92,-57.88 51.92,-57.88 48.96,-57.88 46,-54.92 46,-51.96 46,-51.96 46,-46.04 46,-46.04 46,-43.08 48.96,-40.12 51.92,-40.12 51.92,-40.12 94.08,-40.12 94.08,-40.12 97.04,-40.12 100,-43.08 100,-46.04 100,-46.04 100,-51.96 100,-51.96 100,-54.92 97.04,-57.88 94.08,-57.88"/>
<text text-anchor="start" x="58" y="-45.33" font-family="Helvetica,sans-Serif" font-size="9.00" fill="orange">route.js</text>
</a>
</g>
</g>
<!-- src/app/global&#45;error.jsx -->
<g id="node21" class="node">
<title>src/app/global&#45;error.jsx</title>
<g id="a_node21"><a xlink:href="src/app/global-error.jsx" xlink:title="no&#45;orphans">
<path fill="#ccffcc" stroke="orange" d="M105.83,-225.88C105.83,-225.88 40.17,-225.88 40.17,-225.88 37.21,-225.88 34.25,-222.92 34.25,-219.96 34.25,-219.96 34.25,-214.04 34.25,-214.04 34.25,-211.08 37.21,-208.12 40.17,-208.12 40.17,-208.12 105.83,-208.12 105.83,-208.12 108.79,-208.12 111.75,-211.08 111.75,-214.04 111.75,-214.04 111.75,-219.96 111.75,-219.96 111.75,-222.92 108.79,-225.88 105.83,-225.88"/>
<text text-anchor="start" x="42.25" y="-213.32" font-family="Helvetica,sans-Serif" font-size="9.00" fill="orange">global&#45;error.jsx</text>
</a>
</g>
</g>
<!-- src/app/globals.css -->
<g id="node22" class="node">
<title>src/app/globals.css</title>
<g id="a_node22"><a xlink:href="src/app/globals.css" xlink:title="globals.css">
<path fill="#ffffcc" stroke="black" d="M235.58,-195.88C235.58,-195.88 185.67,-195.88 185.67,-195.88 182.71,-195.88 179.75,-192.92 179.75,-189.96 179.75,-189.96 179.75,-184.04 179.75,-184.04 179.75,-181.08 182.71,-178.12 185.67,-178.12 185.67,-178.12 235.58,-178.12 235.58,-178.12 238.54,-178.12 241.5,-181.08 241.5,-184.04 241.5,-184.04 241.5,-189.96 241.5,-189.96 241.5,-192.92 238.54,-195.88 235.58,-195.88"/>
<text text-anchor="start" x="187.75" y="-183.32" font-family="Helvetica,sans-Serif" font-size="9.00">globals.css</text>
</a>
</g>
</g>
<!-- src/app/layout.tsx -->
<g id="node23" class="node">
<title>src/app/layout.tsx</title>
<g id="a_node23"><a xlink:href="src/app/layout.tsx" xlink:title="layout.tsx">
<path fill="#bbfeff" stroke="black" d="M94.21,-195.88C94.21,-195.88 51.79,-195.88 51.79,-195.88 48.83,-195.88 45.88,-192.92 45.88,-189.96 45.88,-189.96 45.88,-184.04 45.88,-184.04 45.88,-181.08 48.83,-178.12 51.79,-178.12 51.79,-178.12 94.21,-178.12 94.21,-178.12 97.17,-178.12 100.12,-181.08 100.12,-184.04 100.12,-184.04 100.12,-189.96 100.12,-189.96 100.12,-192.92 97.17,-195.88 94.21,-195.88"/>
<text text-anchor="start" x="53.88" y="-183.32" font-family="Helvetica,sans-Serif" font-size="9.00">layout.tsx</text>
</a>
</g>
</g>
<!-- src/app/layout.tsx&#45;&gt;src/app/globals.css -->
<g id="edge34" class="edge">
<title>src/app/layout.tsx&#45;&gt;src/app/globals.css</title>
<path fill="none" stroke="#000000" stroke-width="2" stroke-opacity="0.200000" d="M100.47,-187C120.39,-187 148.01,-187 170.48,-187"/>
<polygon fill="#000000" fill-opacity="0.200000" stroke="#000000" stroke-width="2" stroke-opacity="0.200000" points="170.41,-189.1 176.41,-187 170.41,-184.9 170.41,-189.1"/>
</g>
<!-- src/app/page.module.css -->
<g id="node24" class="node">
<title>src/app/page.module.css</title>
<g id="a_node24"><a xlink:href="src/app/page.module.css" xlink:title="page.module.css">
<path fill="#ffffcc" stroke="black" d="M247.58,-311.88C247.58,-311.88 173.67,-311.88 173.67,-311.88 170.71,-311.88 167.75,-308.92 167.75,-305.96 167.75,-305.96 167.75,-300.04 167.75,-300.04 167.75,-297.08 170.71,-294.12 173.67,-294.12 173.67,-294.12 247.58,-294.12 247.58,-294.12 250.54,-294.12 253.5,-297.08 253.5,-300.04 253.5,-300.04 253.5,-305.96 253.5,-305.96 253.5,-308.92 250.54,-311.88 247.58,-311.88"/>
<text text-anchor="start" x="175.75" y="-299.32" font-family="Helvetica,sans-Serif" font-size="9.00">page.module.css</text>
</a>
</g>
</g>
<!-- src/app/page.tsx -->
<g id="node25" class="node">
<title>src/app/page.tsx</title>
<g id="a_node25"><a xlink:href="src/app/page.tsx" xlink:title="page.tsx">
<path fill="#bbfeff" stroke="black" d="M94.08,-311.88C94.08,-311.88 51.92,-311.88 51.92,-311.88 48.96,-311.88 46,-308.92 46,-305.96 46,-305.96 46,-300.04 46,-300.04 46,-297.08 48.96,-294.12 51.92,-294.12 51.92,-294.12 94.08,-294.12 94.08,-294.12 97.04,-294.12 100,-297.08 100,-300.04 100,-300.04 100,-305.96 100,-305.96 100,-308.92 97.04,-311.88 94.08,-311.88"/>
<text text-anchor="start" x="55.75" y="-299.32" font-family="Helvetica,sans-Serif" font-size="9.00">page.tsx</text>
</a>
</g>
</g>
<!-- src/app/page.tsx&#45;&gt;src/app/page.module.css -->
<g id="edge35" class="edge">
<title>src/app/page.tsx&#45;&gt;src/app/page.module.css</title>
<path fill="none" stroke="#000000" stroke-width="2" stroke-opacity="0.200000" d="M100.47,-303C116.98,-303 138.78,-303 158.56,-303"/>
<polygon fill="#000000" fill-opacity="0.200000" stroke="#000000" stroke-width="2" stroke-opacity="0.200000" points="158.45,-305.1 164.45,-303 158.45,-300.9 158.45,-305.1"/>
</g>
<!-- src/app/sentry&#45;example&#45;page/page.jsx -->
<g id="node26" class="node">
<title>src/app/sentry&#45;example&#45;page/page.jsx</title>
<g id="a_node26"><a xlink:href="src/app/sentry-example-page/page.jsx" xlink:title="no&#45;orphans">
<path fill="#ccffcc" stroke="orange" d="M94.08,-143.88C94.08,-143.88 51.92,-143.88 51.92,-143.88 48.96,-143.88 46,-140.92 46,-137.96 46,-137.96 46,-132.04 46,-132.04 46,-129.08 48.96,-126.12 51.92,-126.12 51.92,-126.12 94.08,-126.12 94.08,-126.12 97.04,-126.12 100,-129.08 100,-132.04 100,-132.04 100,-137.96 100,-137.96 100,-140.92 97.04,-143.88 94.08,-143.88"/>
<text text-anchor="start" x="55.75" y="-131.32" font-family="Helvetica,sans-Serif" font-size="9.00" fill="orange">page.jsx</text>
</a>
</g>
</g>
<!-- src/app/tictactoe/page.css -->
<g id="node27" class="node">
<title>src/app/tictactoe/page.css</title>
<g id="a_node27"><a xlink:href="src/app/tictactoe/page.css" xlink:title="page.css">
<path fill="#ffffcc" stroke="black" d="M231.71,-259.88C231.71,-259.88 189.54,-259.88 189.54,-259.88 186.58,-259.88 183.62,-256.92 183.62,-253.96 183.62,-253.96 183.62,-248.04 183.62,-248.04 183.62,-245.08 186.58,-242.12 189.54,-242.12 189.54,-242.12 231.71,-242.12 231.71,-242.12 234.67,-242.12 237.62,-245.08 237.62,-248.04 237.62,-248.04 237.62,-253.96 237.62,-253.96 237.62,-256.92 234.67,-259.88 231.71,-259.88"/>
<text text-anchor="start" x="192.25" y="-247.32" font-family="Helvetica,sans-Serif" font-size="9.00">page.css</text>
</a>
</g>
</g>
<!-- src/app/tictactoe/page.tsx -->
<g id="node28" class="node">
<title>src/app/tictactoe/page.tsx</title>
<g id="a_node28"><a xlink:href="src/app/tictactoe/page.tsx" xlink:title="page.tsx">
<path fill="#bbfeff" stroke="black" d="M94.08,-259.88C94.08,-259.88 51.92,-259.88 51.92,-259.88 48.96,-259.88 46,-256.92 46,-253.96 46,-253.96 46,-248.04 46,-248.04 46,-245.08 48.96,-242.12 51.92,-242.12 51.92,-242.12 94.08,-242.12 94.08,-242.12 97.04,-242.12 100,-245.08 100,-248.04 100,-248.04 100,-253.96 100,-253.96 100,-256.92 97.04,-259.88 94.08,-259.88"/>
<text text-anchor="start" x="55.75" y="-247.32" font-family="Helvetica,sans-Serif" font-size="9.00">page.tsx</text>
</a>
</g>
</g>
<!-- src/app/tictactoe/page.tsx&#45;&gt;src/Data/index.ts -->
<g id="edge36" class="edge">
<title>src/app/tictactoe/page.tsx&#45;&gt;src/Data/index.ts</title>
<path fill="none" stroke="#000000" stroke-width="2" stroke-opacity="0.200000" d="M100.25,-252.1C110.75,-253.7 122.36,-257.09 131,-264 160.61,-287.69 141.46,-313.68 167.75,-341 170.73,-344.09 174.23,-346.84 177.93,-349.25"/>
<polygon fill="#000000" fill-opacity="0.200000" stroke="#000000" stroke-width="2" stroke-opacity="0.200000" points="176.8,-351.03 183.05,-352.22 178.91,-347.39 176.8,-351.03"/>
</g>
<!-- src/app/tictactoe/page.tsx&#45;&gt;src/Presentation/index.ts -->
<g id="edge37" class="edge">
<title>src/app/tictactoe/page.tsx&#45;&gt;src/Presentation/index.ts</title>
<path fill="none" stroke="#000000" stroke-width="2" stroke-opacity="0.200000" d="M100.32,-250.95C111.2,-252.31 123.1,-255.82 131,-264 132.75,-265.82 191.34,-576.05 206.22,-654.93"/>
<polygon fill="#000000" fill-opacity="0.200000" stroke="#000000" stroke-width="2" stroke-opacity="0.200000" points="204.14,-655.25 207.32,-660.76 208.27,-654.47 204.14,-655.25"/>
</g>
<!-- src/app/tictactoe/page.tsx&#45;&gt;src/app/tictactoe/page.css -->
<g id="edge38" class="edge">
<title>src/app/tictactoe/page.tsx&#45;&gt;src/app/tictactoe/page.css</title>
<path fill="none" stroke="#000000" stroke-width="2" stroke-opacity="0.200000" d="M100.47,-251C121.57,-251 151.3,-251 174.4,-251"/>
<polygon fill="#000000" fill-opacity="0.200000" stroke="#000000" stroke-width="2" stroke-opacity="0.200000" points="174.19,-253.1 180.19,-251 174.19,-248.9 174.19,-253.1"/>
</g>
</g>
</svg>
